<svg xmlns="http://www.w3.org/2000/svg" viewBox="0 0 690.92 189.24">
	<defs>
		<style>.cls-1{fill:#3c3535}.cls-2{fill:#ab2723}.cls-4{fill:#728529}.cls-6{fill:#ed7004}.cls-8{fill:#005f9f}</style>
		<linearGradient id="Gradiente_sem_nome_25" x1="65.95" y1="134.86" x2="17.69" y2="96.85" gradientUnits="userSpaceOnUse">
			<stop offset="0" stop-color="#c93f2b"/>
			<stop offset="1" stop-color="#ab2723"/>
		</linearGradient>
		<linearGradient id="Gradiente_sem_nome_5" x1="112.38" y1="35.11" x2="175.74" y2="98.47" gradientUnits="userSpaceOnUse">
			<stop offset="0" stop-color="#9cb71e"/>
			<stop offset=".36" stop-color="#879e23"/>
			<stop offset=".74" stop-color="#788c28"/>
			<stop offset="1" stop-color="#728529"/>
		</linearGradient>
		<linearGradient id="Gradiente_sem_nome_27" x1="76.23" y1="200.72" x2="138.62" y2="125.63" gradientUnits="userSpaceOnUse">
			<stop offset="0" stop-color="#ed7004"/>
			<stop offset="1" stop-color="#f59a2d"/>
		</linearGradient>
		<linearGradient id="Gradiente_sem_nome_23" x1="62.6" y1="55.84" x2="93.22" y2="14.25" gradientUnits="userSpaceOnUse">
			<stop offset="0" stop-color="#0bbbef"/>
			<stop offset="1" stop-color="#005f9f"/>
		</linearGradient>
	</defs>
	<g id="Camada_2" data-name="Camada 2">
		<g id="Camada_1-2" data-name="Camada 1">
			<path class="cls-1" d="M240.41 66.13a20.39 20.39 0 0 0 8.76 1.77 8.42 8.42 0 0 0 7.25-3.75q2.67-3.77 2.66-12.21V10.12h19.4v47.66a40.6 40.6 0 0 1-1.35 10.9 20.94 20.94 0 0 1-4.38 8.32 19.57 19.57 0 0 1-8.09 5.32 35.37 35.37 0 0 1-12.25 1.88 30.16 30.16 0 0 1-5.32-.47q-2.61-.47-6.26-1.41l-.42-.1zM352.74 55.28q0 14.4-8.55 21.64t-23.36 7.25q-14.82 0-23.37-7.25t-8.55-21.64V10.12h19.4v41.93a39 39 0 0 0 .57 7 16.56 16.56 0 0 0 2 5.59 10.19 10.19 0 0 0 3.91 3.8 12.15 12.15 0 0 0 6 1.36 12.42 12.42 0 0 0 6.1-1.36 9.93 9.93 0 0 0 3.86-3.8 17.64 17.64 0 0 0 2-5.59 39 39 0 0 0 .57-7V10.12h19.4zM363.48 10.12h24.72l24.62 49.44h.2l-.31-49.44h17.73v72.8h-24.09L380.9 33.17h-.21l.63 49.75h-17.84zM454.74 24.51H436.8V10.12h55.28v14.39h-17.94v58.41h-19.4zM504.81 18.83q9.37-10 27.11-10t27.12 10q9.39 10 9.39 27.69T559 74.16q-9.45 10-27.07 10t-27.06-10q-9.45-10-9.44-27.64t9.38-27.69zm11.57 36.55a23.36 23.36 0 0 0 3 7.41 15.28 15.28 0 0 0 5.16 5.11 14.11 14.11 0 0 0 7.4 1.88 14.43 14.43 0 0 0 7.46-1.88 14.76 14.76 0 0 0 5.16-5.11 24 24 0 0 0 2.92-7.41 40 40 0 0 0 .94-8.86 41 41 0 0 0-.94-9.07 24.11 24.11 0 0 0-2.94-7.45 14.07 14.07 0 0 0-5.16-5 15.1 15.1 0 0 0-7.46-1.77 14.76 14.76 0 0 0-7.4 1.77 14.54 14.54 0 0 0-5.16 5 23.46 23.46 0 0 0-3 7.41 41.62 41.62 0 0 0-.94 9.07 40.59 40.59 0 0 0 .96 8.9zM577.4 65a39.82 39.82 0 0 0 9.18 3.49 43.63 43.63 0 0 0 10.84 1.31 20.32 20.32 0 0 0 8.71-1.57 5.6 5.6 0 0 0 3.29-5.52 6.16 6.16 0 0 0-3.13-5.64 48.4 48.4 0 0 0-9.81-4 85.83 85.83 0 0 1-8.34-2.82 26.29 26.29 0 0 1-6.36-3.7 17.38 17.38 0 0 1-4.9-6.1 20.51 20.51 0 0 1-1.88-9.26 19.57 19.57 0 0 1 2.76-10.64 20.11 20.11 0 0 1 7.36-6.94A34.39 34.39 0 0 1 595.23 10a59 59 0 0 1 11.47-1.13 68.19 68.19 0 0 1 10.12.73 50.28 50.28 0 0 1 8.66 2l-1.25 15a38.38 38.38 0 0 0-16.17-3.34c-1.53 0-3 .07-4.43.21a17.69 17.69 0 0 0-4.12.89 7.67 7.67 0 0 0-3.23 2A5.14 5.14 0 0 0 595 30a5.16 5.16 0 0 0 2.92 4.75 46.5 46.5 0 0 0 9.29 3.38c3.33 1 6.15 1.88 8.44 2.72a26.13 26.13 0 0 1 6.68 3.65 17.23 17.23 0 0 1 5.16 6.25 20.82 20.82 0 0 1 1.93 9.39 23.27 23.27 0 0 1-2.61 11.47 19.93 19.93 0 0 1-7.09 7.46A30.56 30.56 0 0 1 609.57 83a61 61 0 0 1-12.15 1.15 80 80 0 0 1-11.16-.83A67.61 67.61 0 0 1 575.73 81zM286.51 120.52a36.68 36.68 0 0 0-14.81-3.13 16.28 16.28 0 0 0-4.07.52 11.86 11.86 0 0 0-3.65 1.67 8.65 8.65 0 0 0-2.71 3.13 10.25 10.25 0 0 0-1 4.8 6.31 6.31 0 0 0 2.92 5.53 48 48 0 0 0 9.18 4.38q4.59 1.77 7.66 3.23a26.82 26.82 0 0 1 5.9 3.86 17.89 17.89 0 0 1 4.53 6 20 20 0 0 1 1.73 8.71 22.2 22.2 0 0 1-2.14 10 18 18 0 0 1-5.9 6.88 26.41 26.41 0 0 1-8.65 3.86 43.18 43.18 0 0 1-10.64 1.25 53 53 0 0 1-8.24-.52c-2.16-.35-5.11-1-8.87-1.88l-1.56-.41 1.36-13.15a39.15 39.15 0 0 0 8.08 3.29 30.54 30.54 0 0 0 8.39 1.2 16.91 16.91 0 0 0 8.87-2.45 7.7 7.7 0 0 0 4.07-6.94 7.23 7.23 0 0 0-3.08-6.26 45.34 45.34 0 0 0-9.65-4.69q-4.38-1.77-7.4-3.23a25.79 25.79 0 0 1-5.74-3.81 17.57 17.57 0 0 1-4.38-5.84 19.39 19.39 0 0 1-1.67-8.4 22.83 22.83 0 0 1 2.05-10.12 18.56 18.56 0 0 1 5.68-6.94 24.6 24.6 0 0 1 8.09-3.91 35.63 35.63 0 0 1 9.59-1.25 54.83 54.83 0 0 1 17.42 2.61zM309.09 116.09q9.33-10.17 26.34-10.17a39.84 39.84 0 0 1 15.12 2.71 30.2 30.2 0 0 1 11.21 7.72 34.21 34.21 0 0 1 6.94 11.89 45.67 45.67 0 0 1 2.4 15.12 46.8 46.8 0 0 1-2.35 15.23 34.61 34.61 0 0 1-6.88 12 30.26 30.26 0 0 1-11.21 7.88 39.58 39.58 0 0 1-15.23 2.76q-17.12 0-26.39-10.32t-9.28-27.54q0-17.11 9.33-27.28zm7 37.08a27.32 27.32 0 0 0 3.6 8.44 18 18 0 0 0 6.36 5.95 21 21 0 0 0 18.67 0 18 18 0 0 0 6.37-5.95 27.06 27.06 0 0 0 3.59-8.44 40.93 40.93 0 0 0 1.15-9.81 38.43 38.43 0 0 0-1.2-9.65 26.7 26.7 0 0 0-3.7-8.34 18.17 18.17 0 0 0-6.42-5.84 20.52 20.52 0 0 0-18.25 0 18 18 0 0 0-6.41 5.89 27.51 27.51 0 0 0-3.71 8.35 37.72 37.72 0 0 0-1.19 9.59 41.44 41.44 0 0 0 1.18 9.81zM382.36 107.17h23.37L423 162.34h.21l17.31-55.17h23.36V180H450v-60.11h-.21L430.13 180h-14l-19.61-60.08-.21.21V180h-14zM484.52 116.09q9.33-10.17 26.34-10.17a39.84 39.84 0 0 1 15.14 2.71 30.2 30.2 0 0 1 11.21 7.72 34.21 34.21 0 0 1 6.94 11.89 45.67 45.67 0 0 1 2.4 15.12 47.06 47.06 0 0 1-2.35 15.23 34.61 34.61 0 0 1-6.88 12 30.21 30.21 0 0 1-11.22 7.88 39.53 39.53 0 0 1-15.22 2.76q-17.12 0-26.39-10.32t-9.28-27.54q-.02-17.11 9.31-27.28zm7 37.08a27.08 27.08 0 0 0 3.6 8.44 17.87 17.87 0 0 0 6.36 5.95 21 21 0 0 0 18.67 0 17.87 17.87 0 0 0 6.36-5.95 26.85 26.85 0 0 0 3.6-8.44 40.93 40.93 0 0 0 1.15-9.81 38.43 38.43 0 0 0-1.2-9.65 26.7 26.7 0 0 0-3.7-8.34 18.17 18.17 0 0 0-6.42-5.84 20.52 20.52 0 0 0-18.25 0 17.92 17.92 0 0 0-6.41 5.89 27.51 27.51 0 0 0-3.71 8.35 37.73 37.73 0 0 0-1.2 9.59 41.44 41.44 0 0 0 1.19 9.81zM596.9 120.52a36.68 36.68 0 0 0-14.81-3.13 16.28 16.28 0 0 0-4.07.52 11.86 11.86 0 0 0-3.65 1.67 8.65 8.65 0 0 0-2.71 3.13 10.25 10.25 0 0 0-1 4.8 6.31 6.31 0 0 0 2.92 5.53 48 48 0 0 0 9.18 4.38q4.59 1.77 7.66 3.23a26.82 26.82 0 0 1 5.9 3.86 17.89 17.89 0 0 1 4.53 6 20 20 0 0 1 1.73 8.71 22.2 22.2 0 0 1-2.14 10 18 18 0 0 1-5.9 6.88 26.41 26.41 0 0 1-8.65 3.86 43.18 43.18 0 0 1-10.64 1.25 53 53 0 0 1-8.24-.52c-2.16-.35-5.11-1-8.87-1.88l-1.56-.41 1.36-13.15a39.15 39.15 0 0 0 8.08 3.29 30.54 30.54 0 0 0 8.39 1.2 16.91 16.91 0 0 0 8.87-2.45 7.7 7.7 0 0 0 4.07-6.94 7.23 7.23 0 0 0-3.08-6.26 45.34 45.34 0 0 0-9.65-4.69q-4.38-1.77-7.4-3.23a25.79 25.79 0 0 1-5.74-3.81 17.57 17.57 0 0 1-4.38-5.84 19.39 19.39 0 0 1-1.67-8.4 22.83 22.83 0 0 1 2.05-10.12 18.56 18.56 0 0 1 5.68-6.94 24.6 24.6 0 0 1 8.09-3.91 35.63 35.63 0 0 1 9.59-1.25 54.83 54.83 0 0 1 17.42 2.61z"/>
			<circle class="cls-2" cx="18.25" cy="170.05" r="18.25"/>
			<path class="cls-2" d="M87.63 125.93V175c0 12.47-8.95 17.77-19.88 11.76L39.5 150.61l41.63-40.52a22.61 22.61 0 0 1 6.5 15.84z"/>
			<path d="M15.87 103.25H65a22.59 22.59 0 0 1 16.17 6.84L39.5 150.61 4.11 123.12c-6-10.93-.71-19.87 11.76-19.87z" fill="url(#Gradiente_sem_nome_25)"/>
			<path class="cls-4" d="M156 18.49A18.26 18.26 0 1 0 174.26.23 18.25 18.25 0 0 0 156 18.49zM124.76 2.48c-10.93-6-19.87-.71-19.87 11.76v49.08a22.58 22.58 0 0 0 6.93 16.25l40.91-41.23z"/>
			<path d="M188.41 66.12l-35.68-27.78-40.91 41.23A22.53 22.53 0 0 0 127.57 86h49.09c12.47 0 17.76-8.94 11.75-19.88z" fill="url(#Gradiente_sem_nome_5)"/>
			<circle class="cls-6" cx="173.83" cy="170.05" r="18.25"/>
			<path class="cls-6" d="M129.21 103.25h49.07c12.47 0 17.76 8.94 11.76 19.87l-36.28 28.4-40.91-41.23a22.62 22.62 0 0 1 16.36-7.04z"/>
			<path d="M153.76 151.52l-27.35 35.24c-10.93 6-19.87.71-19.87-11.76v-49.07a22.59 22.59 0 0 1 6.31-15.64z" fill="url(#Gradiente_sem_nome_27)"/>
			<path class="cls-8" d="M2.08 18.49A18.26 18.26 0 1 0 20.34.23 18.26 18.26 0 0 0 2.08 18.49z"/>
			<path d="M87.63 63.32V14.24c0-12.48-8.95-17.77-19.88-11.76l-29 36.88 41.62 40.5a22.57 22.57 0 0 0 7.26-16.54z" fill="url(#Gradiente_sem_nome_23)"/>
			<path class="cls-8" d="M38.77 39.36L4.12 66.12C-1.89 77.06 3.4 86 15.88 86H65a22.57 22.57 0 0 0 15.44-6.14z"/>
			<path class="cls-1" d="M616.33 132.46h28v-28h18.58v28h28V151h-28v28h-18.58v-28h-28z"/>
		</g>
	</g>
</svg>